<?xml version="1.0" encoding="UTF-8" standalone="no"?>
<!DOCTYPE svg PUBLIC "-//W3C//DTD SVG 1.1//EN"
 "http://www.w3.org/Graphics/SVG/1.1/DTD/svg11.dtd">
<!-- Generated by graphviz version 12.1.1 (20240910.0053)
 -->
<!-- Title: INFRA Pages: 1 -->
<svg width="1097pt" height="404pt"
 viewBox="0.00 0.00 1096.84 404.00" xmlns="http://www.w3.org/2000/svg" xmlns:xlink="http://www.w3.org/1999/xlink">
<g id="graph0" class="graph" transform="scale(1 1) rotate(0) translate(4 400)">
<title>INFRA</title>
<polygon fill="white" stroke="none" points="-4,4 -4,-400 1092.84,-400 1092.84,4 -4,4"/>
<!-- MainQueue -->
<g id="node1" class="node">
<title>MainQueue</title>
<path fill="#cce0ac" stroke="black" stroke-width="2" d="M492.23,-180C492.23,-180 371.86,-180 371.86,-180 365.86,-180 359.86,-174 359.86,-168 359.86,-168 359.86,-120 359.86,-120 359.86,-114 365.86,-108 371.86,-108 371.86,-108 492.23,-108 492.23,-108 498.23,-108 504.23,-114 504.23,-120 504.23,-120 504.23,-168 504.23,-168 504.23,-174 498.23,-180 492.23,-180"/>
<text text-anchor="middle" x="432.05" y="-148.2" font-family="Arial" font-size="14.00">MainQueue</text>
<text text-anchor="middle" x="432.05" y="-131.4" font-family="Arial" font-size="14.00">(AWS::SQS::Queue)</text>
</g>
<!-- DeadLetterQueue -->
<g id="node2" class="node">
<title>DeadLetterQueue</title>
<path fill="#cce0ac" stroke="black" stroke-width="2" d="M542.23,-72C542.23,-72 421.86,-72 421.86,-72 415.86,-72 409.86,-66 409.86,-60 409.86,-60 409.86,-12 409.86,-12 409.86,-6 415.86,0 421.86,0 421.86,0 542.23,0 542.23,0 548.23,0 554.23,-6 554.23,-12 554.23,-12 554.23,-60 554.23,-60 554.23,-66 548.23,-72 542.23,-72"/>
<text text-anchor="middle" x="482.05" y="-40.2" font-family="Arial" font-size="14.00">DeadLetterQueue</text>
<text text-anchor="middle" x="482.05" y="-23.4" font-family="Arial" font-size="14.00">(AWS::SQS::Queue)</text>
</g>
<!-- MainQueue&#45;&gt;DeadLetterQueue -->
<g id="edge1" class="edge">
<title>MainQueue&#45;&gt;DeadLetterQueue</title>
<path fill="none" stroke="black" d="M448.7,-107.7C452.53,-99.57 456.67,-90.8 460.68,-82.31"/>
<polygon fill="black" stroke="black" points="463.72,-84.05 464.83,-73.51 457.39,-81.06 463.72,-84.05"/>
</g>
<!-- MessageProcessorFunction -->
<g id="node3" class="node">
<title>MessageProcessorFunction</title>
<path fill="#b7e0ff" stroke="black" stroke-width="2" d="M413.81,-288C413.81,-288 248.29,-288 248.29,-288 242.29,-288 236.29,-282 236.29,-276 236.29,-276 236.29,-228 236.29,-228 236.29,-222 242.29,-216 248.29,-216 248.29,-216 413.81,-216 413.81,-216 419.81,-216 425.81,-222 425.81,-228 425.81,-228 425.81,-276 425.81,-276 425.81,-282 419.81,-288 413.81,-288"/>
<text text-anchor="middle" x="331.05" y="-256.2" font-family="Arial" font-size="14.00">MessageProcessorFunction</text>
<text text-anchor="middle" x="331.05" y="-239.4" font-family="Arial" font-size="14.00">(AWS::Lambda::Function)</text>
</g>
<!-- MessageProcessorFunction&#45;&gt;MainQueue -->
<g id="edge2" class="edge">
<title>MessageProcessorFunction&#45;&gt;MainQueue</title>
<path fill="none" stroke="black" d="M364.68,-215.7C373.03,-206.94 382.07,-197.45 390.74,-188.35"/>
<polygon fill="black" stroke="black" points="393.15,-190.89 397.52,-181.24 388.09,-186.06 393.15,-190.89"/>
</g>
<!-- MessageProcessorFunction&#45;&gt;DeadLetterQueue -->
<g id="edge3" class="edge">
<title>MessageProcessorFunction&#45;&gt;DeadLetterQueue</title>
<path fill="none" stroke="black" d="M327.55,-215.79C326.29,-184.73 329.11,-139.62 351.05,-108 363.11,-90.61 380.84,-77.09 399.38,-66.73"/>
<polygon fill="black" stroke="black" points="400.86,-69.91 408.09,-62.16 397.61,-63.71 400.86,-69.91"/>
</g>
<!-- MessageRedriveFunction -->
<g id="node4" class="node">
<title>MessageRedriveFunction</title>
<path fill="#b7e0ff" stroke="black" stroke-width="2" d="M608.58,-288C608.58,-288 455.52,-288 455.52,-288 449.52,-288 443.52,-282 443.52,-276 443.52,-276 443.52,-228 443.52,-228 443.52,-222 449.52,-216 455.52,-216 455.52,-216 608.58,-216 608.58,-216 614.58,-216 620.58,-222 620.58,-228 620.58,-228 620.58,-276 620.58,-276 620.58,-282 614.58,-288 608.58,-288"/>
<text text-anchor="middle" x="532.05" y="-256.2" font-family="Arial" font-size="14.00">MessageRedriveFunction</text>
<text text-anchor="middle" x="532.05" y="-239.4" font-family="Arial" font-size="14.00">(AWS::Lambda::Function)</text>
</g>
<!-- MessageRedriveFunction&#45;&gt;MainQueue -->
<g id="edge4" class="edge">
<title>MessageRedriveFunction&#45;&gt;MainQueue</title>
<path fill="none" stroke="black" d="M498.75,-215.7C490.48,-206.94 481.53,-197.45 472.95,-188.35"/>
<polygon fill="black" stroke="black" points="475.65,-186.12 466.24,-181.24 470.56,-190.92 475.65,-186.12"/>
</g>
<!-- MessageRedriveFunction&#45;&gt;DeadLetterQueue -->
<g id="edge5" class="edge">
<title>MessageRedriveFunction&#45;&gt;DeadLetterQueue</title>
<path fill="none" stroke="black" d="M530.12,-215.78C527.86,-186.49 523.07,-143.95 513.05,-108 510.74,-99.71 507.65,-91.13 504.31,-82.93"/>
<polygon fill="black" stroke="black" points="507.56,-81.62 500.42,-73.8 501.12,-84.37 507.56,-81.62"/>
</g>
<!-- LogGroupMessageProcessor -->
<g id="node5" class="node">
<title>LogGroupMessageProcessor</title>
<path fill="#e6e6e6" stroke="black" stroke-width="2" d="M186.1,-396C186.1,-396 12,-396 12,-396 6,-396 0,-390 0,-384 0,-384 0,-336 0,-336 0,-330 6,-324 12,-324 12,-324 186.1,-324 186.1,-324 192.1,-324 198.1,-330 198.1,-336 198.1,-336 198.1,-384 198.1,-384 198.1,-390 192.1,-396 186.1,-396"/>
<text text-anchor="middle" x="99.05" y="-364.2" font-family="Arial" font-size="14.00">LogGroupMessageProcessor</text>
<text text-anchor="middle" x="99.05" y="-347.4" font-family="Arial" font-size="14.00">(AWS::Logs::LogGroup)</text>
</g>
<!-- LogGroupMessageProcessor&#45;&gt;MessageProcessorFunction -->
<g id="edge6" class="edge">
<title>LogGroupMessageProcessor&#45;&gt;MessageProcessorFunction</title>
<path fill="none" stroke="black" d="M176.62,-323.56C198,-313.79 221.34,-303.12 243.26,-293.11"/>
<polygon fill="black" stroke="black" points="244.53,-296.38 252.17,-289.04 241.62,-290.01 244.53,-296.38"/>
</g>
<!-- LogGroupMessageRedrive -->
<g id="node6" class="node">
<title>LogGroupMessageRedrive</title>
<path fill="#e6e6e6" stroke="black" stroke-width="2" d="M387.71,-396C387.71,-396 228.39,-396 228.39,-396 222.39,-396 216.39,-390 216.39,-384 216.39,-384 216.39,-336 216.39,-336 216.39,-330 222.39,-324 228.39,-324 228.39,-324 387.71,-324 387.71,-324 393.71,-324 399.71,-330 399.71,-336 399.71,-336 399.71,-384 399.71,-384 399.71,-390 393.71,-396 387.71,-396"/>
<text text-anchor="middle" x="308.05" y="-364.2" font-family="Arial" font-size="14.00">LogGroupMessageRedrive</text>
<text text-anchor="middle" x="308.05" y="-347.4" font-family="Arial" font-size="14.00">(AWS::Logs::LogGroup)</text>
</g>
<!-- LogGroupMessageRedrive&#45;&gt;MessageRedriveFunction -->
<g id="edge7" class="edge">
<title>LogGroupMessageRedrive&#45;&gt;MessageRedriveFunction</title>
<path fill="none" stroke="black" d="M382.95,-323.56C403.5,-313.83 425.92,-303.22 447,-293.25"/>
<polygon fill="black" stroke="black" points="448.31,-296.5 455.85,-289.06 445.31,-290.17 448.31,-296.5"/>
</g>
<!-- DLQMessageAlarm -->
<g id="node7" class="node">
<title>DLQMessageAlarm</title>
<path fill="#e6e6e6" stroke="black" stroke-width="2" d="M1076.84,-396C1076.84,-396 915.25,-396 915.25,-396 909.25,-396 903.25,-390 903.25,-384 903.25,-384 903.25,-336 903.25,-336 903.25,-330 909.25,-324 915.25,-324 915.25,-324 1076.84,-324 1076.84,-324 1082.84,-324 1088.84,-330 1088.84,-336 1088.84,-336 1088.84,-384 1088.84,-384 1088.84,-390 1082.84,-396 1076.84,-396"/>
<text text-anchor="middle" x="996.05" y="-364.2" font-family="Arial" font-size="14.00">DLQMessageAlarm</text>
<text text-anchor="middle" x="996.05" y="-347.4" font-family="Arial" font-size="14.00">(AWS::CloudWatch::Alarm)</text>
</g>
<!-- DLQMessageAlarm&#45;&gt;DeadLetterQueue -->
<g id="edge8" class="edge">
<title>DLQMessageAlarm&#45;&gt;DeadLetterQueue</title>
<path fill="none" stroke="black" d="M967.55,-323.51C941.11,-292.27 899.42,-247.04 856.05,-216 764.03,-150.14 644.01,-97.67 565.06,-66.98"/>
<polygon fill="black" stroke="black" points="566.69,-63.86 556.1,-63.52 564.17,-70.39 566.69,-63.86"/>
</g>
<!-- DLQAlarmSNSTopic -->
<g id="node8" class="node">
<title>DLQAlarmSNSTopic</title>
<path fill="#cce0ac" stroke="black" stroke-width="2" d="M835.23,-288C835.23,-288 714.87,-288 714.87,-288 708.87,-288 702.87,-282 702.87,-276 702.87,-276 702.87,-228 702.87,-228 702.87,-222 708.87,-216 714.87,-216 714.87,-216 835.23,-216 835.23,-216 841.23,-216 847.23,-222 847.23,-228 847.23,-228 847.23,-276 847.23,-276 847.23,-282 841.23,-288 835.23,-288"/>
<text text-anchor="middle" x="775.05" y="-256.2" font-family="Arial" font-size="14.00">DLQAlarmSNSTopic</text>
<text text-anchor="middle" x="775.05" y="-239.4" font-family="Arial" font-size="14.00">(AWS::SNS::Topic)</text>
</g>
<!-- DLQMessageAlarm&#45;&gt;DLQAlarmSNSTopic -->
<g id="edge9" class="edge">
<title>DLQMessageAlarm&#45;&gt;DLQAlarmSNSTopic</title>
<path fill="none" stroke="black" d="M922.15,-323.56C901.45,-313.63 878.81,-302.77 857.64,-292.61"/>
<polygon fill="black" stroke="black" points="859.27,-289.51 848.74,-288.34 856.24,-295.83 859.27,-289.51"/>
</g>
<!-- DLQAlarmSNSTopicSubscription -->
<g id="node9" class="node">
<title>DLQAlarmSNSTopicSubscription</title>
<path fill="#cce0ac" stroke="black" stroke-width="2" d="M873.75,-396C873.75,-396 676.34,-396 676.34,-396 670.34,-396 664.34,-390 664.34,-384 664.34,-384 664.34,-336 664.34,-336 664.34,-330 670.34,-324 676.34,-324 676.34,-324 873.75,-324 873.75,-324 879.75,-324 885.75,-330 885.75,-336 885.75,-336 885.75,-384 885.75,-384 885.75,-390 879.75,-396 873.75,-396"/>
<text text-anchor="middle" x="775.05" y="-364.2" font-family="Arial" font-size="14.00">DLQAlarmSNSTopicSubscription</text>
<text text-anchor="middle" x="775.05" y="-347.4" font-family="Arial" font-size="14.00">(AWS::SNS::Subscription)</text>
</g>
<!-- DLQAlarmSNSTopicSubscription&#45;&gt;MessageRedriveFunction -->
<g id="edge11" class="edge">
<title>DLQAlarmSNSTopicSubscription&#45;&gt;MessageRedriveFunction</title>
<path fill="none" stroke="black" d="M693.79,-323.56C671.3,-313.74 646.73,-303.03 623.69,-292.98"/>
<polygon fill="black" stroke="black" points="625.18,-289.81 614.61,-289.02 622.38,-296.22 625.18,-289.81"/>
</g>
<!-- DLQAlarmSNSTopicSubscription&#45;&gt;DLQAlarmSNSTopic -->
<g id="edge10" class="edge">
<title>DLQAlarmSNSTopicSubscription&#45;&gt;DLQAlarmSNSTopic</title>
<path fill="none" stroke="black" d="M775.05,-323.7C775.05,-315.93 775.05,-307.57 775.05,-299.43"/>
<polygon fill="black" stroke="black" points="778.55,-299.66 775.05,-289.66 771.55,-299.66 778.55,-299.66"/>
</g>
<!-- SNSToRedriveLambdaPermission -->
<g id="node10" class="node">
<title>SNSToRedriveLambdaPermission</title>
<path fill="#e6e6e6" stroke="black" stroke-width="2" d="M634.65,-396C634.65,-396 429.45,-396 429.45,-396 423.45,-396 417.45,-390 417.45,-384 417.45,-384 417.45,-336 417.45,-336 417.45,-330 423.45,-324 429.45,-324 429.45,-324 634.65,-324 634.65,-324 640.65,-324 646.65,-330 646.65,-336 646.65,-336 646.65,-384 646.65,-384 646.65,-390 640.65,-396 634.65,-396"/>
<text text-anchor="middle" x="532.05" y="-364.2" font-family="Arial" font-size="14.00">SNSToRedriveLambdaPermission</text>
<text text-anchor="middle" x="532.05" y="-347.4" font-family="Arial" font-size="14.00">(AWS::Lambda::Permission)</text>
</g>
<!-- SNSToRedriveLambdaPermission&#45;&gt;MessageRedriveFunction -->
<g id="edge12" class="edge">
<title>SNSToRedriveLambdaPermission&#45;&gt;MessageRedriveFunction</title>
<path fill="none" stroke="black" d="M532.05,-323.7C532.05,-315.93 532.05,-307.57 532.05,-299.43"/>
<polygon fill="black" stroke="black" points="535.55,-299.66 532.05,-289.66 528.55,-299.66 535.55,-299.66"/>
</g>
<!-- SNSToRedriveLambdaPermission&#45;&gt;DLQAlarmSNSTopic -->
<g id="edge13" class="edge">
<title>SNSToRedriveLambdaPermission&#45;&gt;DLQAlarmSNSTopic</title>
<path fill="none" stroke="black" d="M613.3,-323.56C638.65,-312.5 666.62,-300.3 692.08,-289.19"/>
<polygon fill="black" stroke="black" points="693.3,-292.48 701.06,-285.27 690.5,-286.06 693.3,-292.48"/>
</g>
</g>
</svg>
